<?xml version="1.0" encoding="iso-8859-1"?>
<!-- Generator: Adobe Illustrator 19.0.0, SVG Export Plug-In . SVG Version: 6.00 Build 0)  -->
<svg version="1.1" id="Capa_1" xmlns="http://www.w3.org/2000/svg" xmlns:xlink="http://www.w3.org/1999/xlink" x="0px" y="0px"
	 viewBox="0 0 512 512" style="enable-background:new 0 0 512 512;" xml:space="preserve">
<g>
	<g>
		<path d="M291.447,193.192c-3.697-1.867-8.208-0.383-10.075,3.314c-3.542,7.014-13.974,11.913-25.37,11.913
			c-11.396,0-21.828-4.898-25.37-11.913c-1.866-3.698-6.377-5.181-10.075-3.314s-5.182,6.377-3.314,10.075
			c6.181,12.242,21.395,20.152,38.759,20.152s32.578-7.91,38.759-20.152C296.628,199.57,295.144,195.059,291.447,193.192z"/>
	</g>
</g>
<g>
	<g>
		<path d="M427.475,323.905l-73.842-20.512c-10.592-2.942-17.99-12.675-17.99-23.668V234.15
			c13.51-16.194,22.188-36.551,23.785-58.841c0.261,0.009,0.522,0.014,0.784,0.014c12.976,0,23.532-10.557,23.532-23.532v-8.016
			c0-10.354-6.724-19.161-16.032-22.3V57.924c0-16.501-12.343-31.562-34.755-42.406C312.276,5.511,284.946,0,256.002,0
			c-28.944,0-56.274,5.511-76.954,15.518c-22.413,10.845-34.756,25.905-34.756,42.406v63.551
			c-9.308,3.139-16.032,11.946-16.032,22.3v8.016c0,12.976,10.557,23.532,23.532,23.532c0.261,0,0.522-0.004,0.784-0.014
			c1.597,22.287,10.274,42.642,23.781,58.835v45.581c0,10.993-7.397,20.726-17.99,23.668l-73.842,20.512
			c-30.887,8.58-52.458,36.96-52.458,69.016V504.5c0,4.142,3.358,7.5,7.5,7.5c4.142,0,7.5-3.358,7.5-7.5V392.921
			c0-25.343,17.054-47.78,41.473-54.563l23.688-6.58v52.481c0,8.556,6.96,15.516,15.516,15.516h0.516v17.064h-0.521
			c-12.976,0-23.532,10.557-23.532,23.532V504.5c0,4.142,3.358,7.5,7.5,7.5c4.142,0,7.5-3.358,7.5-7.5v-64.129
			c0-4.705,3.828-8.532,8.532-8.532h16.035c4.142,0,7.5-3.358,7.5-7.5c0-4.142-3.358-7.5-7.5-7.5h-0.515v-17.064h0.516
			c8.556,0,15.516-6.96,15.516-15.516v-56.287c19.795,34.271,56.402,55.77,96.71,55.77c40.323,0,76.917-21.496,96.709-55.769v56.286
			c0,8.556,6.96,15.516,15.516,15.516h0.516v17.064H175.836c-4.142,0-7.5,3.358-7.5,7.5c0,4.142,3.358,7.5,7.5,7.5h208.42
			c4.705,0,8.532,3.828,8.532,8.532V504.5c0,4.142,3.358,7.5,7.5,7.5c4.142,0,7.5-3.358,7.5-7.5v-64.129
			c0-12.976-10.557-23.532-23.532-23.532h-0.512v-17.064h0.516c8.556,0,15.516-6.96,15.516-15.516V331.78l23.684,6.579
			c24.418,6.783,41.473,29.22,41.473,54.563V504.5c0,4.142,3.358,7.5,7.5,7.5c4.142,0,7.5-3.358,7.5-7.5V392.921
			C479.933,360.865,458.361,332.484,427.475,323.905z M144.292,384.258c0,0.285-0.231,0.516-0.516,0.516h-16.032
			c-0.285,0-0.516-0.231-0.516-0.516v-56.647l17.064-4.74V384.258z M159.292,57.924c0-10.285,9.583-20.82,26.29-28.904
			C204.266,19.979,229.275,15,256.002,15s51.736,4.979,70.42,14.02c16.707,8.084,26.289,18.619,26.289,28.904v48.726
			c-4.267-2.109-8.944-4.077-14.012-5.885c-3.902-1.393-8.192,0.642-9.584,4.543c-1.392,3.901,0.642,8.192,4.543,9.584
			c4.814,1.717,9.192,3.571,13.104,5.545l-14.401,10.801c-2.735,2.051-6.312,2.534-9.115,1.229
			c-16.698-7.77-41.208-12.227-67.244-12.227c-26.037,0-50.546,4.457-67.245,12.227c-2.802,1.304-6.38,0.822-9.114-1.229
			l-14.417-10.813c21.211-10.772,54.674-17.249,90.776-17.249c16.307,0,32.057,1.295,46.813,3.848
			c4.078,0.703,7.963-2.029,8.669-6.111c0.707-4.082-2.03-7.963-6.111-8.669c-15.599-2.699-32.209-4.068-49.371-4.068
			c-37.724,0-73.201,6.923-96.71,18.491V57.924z M167.307,167.821v-2.224c0.002-2.682-1.433-5.162-3.76-6.5
			c-2.327-1.338-5.192-1.331-7.511,0.02c-1.375,0.8-2.802,1.206-4.243,1.206c-4.705,0-8.532-3.828-8.532-8.532v-8.016
			c0-4.705,3.828-8.533,8.532-8.533c1.441,0,2.868,0.406,4.243,1.206c1.994,1.16,4.301,1.296,6.314,0.571l8.293,6.22
			c4.378,3.284,9.552,4.973,14.703,4.973c3.33,0,6.651-0.706,9.74-2.144c1.676-0.78,3.46-1.517,5.318-2.22v7.943
			c0,4.142,3.358,7.5,7.5,7.5c4.142,0,7.5-3.358,7.5-7.5v-12.358c12.029-2.712,25.987-4.191,40.598-4.191
			c14.611,0,28.567,1.478,40.596,4.19v12.358c0,4.142,3.358,7.5,7.5,7.5c4.142,0,7.5-3.358,7.5-7.5v-7.943
			c1.859,0.703,3.643,1.44,5.319,2.22c7.869,3.662,17.235,2.578,24.443-2.829l8.293-6.22c2.014,0.725,4.322,0.589,6.315-0.572
			c1.375-0.8,2.802-1.206,4.243-1.206c4.705,0,8.532,3.828,8.532,8.533v8.016c0,4.705-3.828,8.532-8.532,8.532
			c-1.441,0-2.868-0.406-4.243-1.206c-2.32-1.351-5.185-1.358-7.512-0.02c-2.327,1.338-3.762,3.818-3.762,6.502v2.224
			c0,48.906-39.788,88.693-88.693,88.693S167.307,216.726,167.307,167.821z M256.002,368.742c-36.94,0-70.292-20.856-86.586-53.608
			c13.21-6.597,21.941-20.256,21.941-35.409v-30.888c17.74,14.184,40.218,22.679,64.646,22.679c24.426,0,46.901-8.493,64.641-22.675
			v30.884c0,15.155,8.733,28.816,21.946,35.412C326.295,347.891,292.957,368.742,256.002,368.742z M384.776,384.258
			c0,0.285-0.231,0.516-0.516,0.516h-16.032c-0.285,0-0.516-0.231-0.516-0.516v-61.386l17.064,4.74V384.258z"/>
	</g>
</g>
<g>
	<g>
		<path d="M151.788,448.903h-8.016c-4.142,0-7.5,3.358-7.5,7.5c0,4.142,3.358,7.5,7.5,7.5h8.016c4.142,0,7.5-3.358,7.5-7.5
			C159.288,452.261,155.93,448.903,151.788,448.903z"/>
	</g>
</g>
<g>
	<g>
		<path d="M368.224,448.903h-8.016c-4.142,0-7.5,3.358-7.5,7.5c0,4.142,3.358,7.5,7.5,7.5h8.016c4.142,0,7.5-3.358,7.5-7.5
			C375.724,452.261,372.366,448.903,368.224,448.903z"/>
	</g>
</g>
<g>
	<g>
		<path d="M270.229,47.385c-1.395-2.061-3.722-3.295-6.21-3.295h-4.955l3.902-9.755c1.539-3.846-0.332-8.211-4.178-9.749
			c-3.849-1.54-8.211,0.332-9.749,4.178l-8.016,20.041c-0.924,2.311-0.643,4.93,0.753,6.99c1.395,2.059,3.722,3.294,6.21,3.294
			h4.955l-3.902,9.754c-1.539,3.846,0.332,8.211,4.178,9.749c0.914,0.366,1.856,0.539,2.783,0.539c2.977,0,5.793-1.784,6.966-4.716
			l8.016-20.04C271.906,52.064,271.625,49.445,270.229,47.385z"/>
	</g>
</g>
<g>
</g>
<g>
</g>
<g>
</g>
<g>
</g>
<g>
</g>
<g>
</g>
<g>
</g>
<g>
</g>
<g>
</g>
<g>
</g>
<g>
</g>
<g>
</g>
<g>
</g>
<g>
</g>
<g>
</g>
</svg>
